<svg width="40" height="40" viewBox="0 0 40 40" fill="none" xmlns="http://www.w3.org/2000/svg">
<rect x="1" y="1" width="38" height="38" rx="19" fill="white"/>
<rect x="1" y="1" width="38" height="38" rx="19" stroke="black" stroke-width="2"/>
<path d="M23.5 28C24.2969 28 25 28.6562 25 29.5C25 30.2969 24.2969 31 23.5 31H17.5C16.6562 31 16 30.2969 16 29.5C16 28.6562 16.6562 28 17.5 28H19V19H17.5C16.6562 19 16 18.3438 16 17.5C16 16.7031 16.6562 16 17.5 16H20.5C21.2969 16 22 16.7031 22 17.5V28H23.5ZM20.5 13C19.2344 13 18.25 12.0156 18.25 10.7969C18.25 9.53125 19.2344 8.54688 20.5 8.54688C21.7188 8.54688 22.75 9.53125 22.75 10.75C22.75 12.0156 21.7188 13 20.5 13Z" fill="black"/>
</svg>
